<svg width="70" height="33" viewBox="0 0 70 33" fill="none" xmlns="http://www.w3.org/2000/svg">
<path d="M22.5499 24.1642L27.664 24.5404V28.9029C27.664 28.9029 18.1084 38.3021 4.18457 27.1735H8.92937L9.45521 22.8867C9.45521 22.8867 14.8701 28.3753 22.5499 24.1642Z" fill="white"/>
<path d="M5.23167 4.00977C5.23167 4.00977 -5.16042 13.6728 3.34842 26.0447L8.09811 26.4966L8.55058 21.9093C8.55058 21.9093 4.18488 14.7646 9.82483 9.12462L4.76697 8.7338L5.23167 4.00977Z" fill="white"/>
<path d="M6.36235 3.3336C6.36235 3.3336 19.3249 -5.01285 29.179 5.06298L24.8108 4.76254L24.3583 9.64779C24.3583 9.64779 19.3885 3.63404 11.1072 8.29701L6.06152 8.07229L6.36235 3.3336Z" fill="white"/>
<path d="M25.4873 10.8536L25.7881 5.81445L30.3813 6.26634L44.2366 21.6817H39.4942L39.0418 25.9685L25.4873 10.8536Z" fill="white"/>
<path d="M23.832 23.3383L41.3756 4.00977L46.0445 4.46165L45.7437 9.20034L28.501 28.3749L28.5744 23.4115L23.832 23.3383Z" fill="white"/>
<path d="M42.0527 3.31463L46.91 3.71033L46.5725 8.33666C46.5725 8.33666 53.7435 3.76651 58.997 8.61756L64.1332 8.84229L64.5954 4.33809C64.5954 4.33809 56.5684 -4.69963 42.0527 3.31463Z" fill="white"/>
<path d="M59.7306 9.34977L64.8667 9.65021L65.2629 5.11914C65.2629 5.11914 76.5012 17.6229 64.358 28.3754L59.3906 28.031L59.8431 22.9015C59.8431 22.9015 66.5641 15.3855 59.7306 9.34977Z" fill="white"/>
<path d="M45.4424 22.8874L40.2549 22.4355L39.9639 27.0057C39.9639 27.0057 49.1698 37.6091 63.0617 29.1479L58.3169 28.7644L58.7694 23.8572C58.7694 23.8572 52.7259 28.696 45.4424 22.8874Z" fill="white"/>
<path d="M52.0072 14.9868V16.6967C51.9923 16.7632 51.985 16.8312 51.9852 16.8994C51.985 16.9684 51.9923 17.0372 52.0072 17.1046V19.8599H50.7256V14.9746L52.0072 14.9868Z" fill="white"/>
<path d="M53.1342 14.9899C52.7121 15.0445 52.3178 15.2299 52.0067 15.52C51.7922 15.6862 51.6147 15.8951 51.4854 16.1336C51.3561 16.372 51.278 16.6347 51.2559 16.905C51.2748 17.1874 51.3511 17.463 51.4802 17.7149C51.6093 17.9669 51.7884 18.19 52.0067 18.3705C52.2792 18.6301 52.6319 18.7894 53.007 18.8224C54.1981 18.8517 54.7851 17.8283 54.7851 16.9074C54.7851 15.9865 54.0563 14.9362 53.1342 14.9899ZM52.7453 17.7525C52.5681 17.7447 52.3989 17.6768 52.2655 17.56C52.1321 17.4432 52.0426 17.2846 52.0116 17.1101C51.9968 17.0427 51.9894 16.9739 51.9896 16.905C51.9894 16.8368 51.9968 16.7688 52.0116 16.7022C52.0426 16.5278 52.1321 16.3691 52.2655 16.2523C52.3989 16.1355 52.5681 16.0676 52.7453 16.0598C52.9565 16.0794 53.1527 16.1771 53.2955 16.3337C53.4384 16.4902 53.5175 16.6944 53.5175 16.9062C53.5175 17.118 53.4384 17.3221 53.2955 17.4787C53.1527 17.6352 52.9565 17.7329 52.7453 17.7525ZM57.3336 16.4482C57.1477 16.3896 56.4605 16.2821 56.4605 16.0232C56.4605 15.8766 56.6708 15.8595 56.7735 15.8644C57.067 15.8644 57.5073 16.2137 57.7518 16.1477C57.9695 16.0916 58.1603 15.5298 58.241 15.3392C57.6232 14.9871 56.9036 14.8561 56.2012 14.9679C56.0277 15.001 55.8634 15.0712 55.7196 15.1737C55.5758 15.2763 55.456 15.4087 55.3683 15.5619C55.2807 15.7151 55.2274 15.8855 55.212 16.0612C55.1966 16.237 55.2195 16.414 55.2792 16.5801C55.5898 17.3837 56.5436 17.0686 57.0254 17.5571C57.2235 17.7623 56.8151 17.8551 56.6806 17.8502C56.2669 17.7889 55.8714 17.6389 55.5213 17.4106C55.4014 17.5816 55.0321 17.9895 55.0762 18.202C55.1202 18.4145 55.6069 18.5733 55.8099 18.6368C56.4898 18.8566 57.5391 18.9397 58.0502 18.3217C58.6886 17.5791 58.1309 16.7071 57.3336 16.4482ZM47.3818 13.6367C46.8497 13.6367 46.3295 13.7943 45.8871 14.0895C45.4447 14.3848 45.0998 14.8044 44.8962 15.2954C44.6926 15.7863 44.6393 16.3266 44.7431 16.8478C44.8469 17.369 45.1031 17.8478 45.4794 18.2235C45.8556 18.5993 46.335 18.8552 46.8569 18.9589C47.3788 19.0625 47.9197 19.0093 48.4113 18.806C48.9029 18.6026 49.3231 18.2582 49.6187 17.8164C49.9143 17.3745 50.0721 16.855 50.0721 16.3236C50.0721 15.611 49.7887 14.9276 49.2841 14.4237C48.7796 13.9198 48.0953 13.6367 47.3818 13.6367ZM47.3818 17.6939C47.109 17.6934 46.8426 17.6122 46.6161 17.4606C46.3895 17.3089 46.2131 17.0936 46.1091 16.8418C46.0051 16.59 45.9781 16.3131 46.0316 16.046C46.0851 15.7789 46.2167 15.5337 46.4097 15.3413C46.6027 15.1489 46.8485 15.0179 47.116 14.9649C47.3835 14.912 47.6607 14.9394 47.9126 15.0437C48.1646 15.1481 48.3798 15.3247 48.5313 15.5512C48.6828 15.7777 48.7636 16.0439 48.7636 16.3163C48.7636 16.4976 48.7278 16.6771 48.6582 16.8446C48.5885 17.0121 48.4865 17.1642 48.3579 17.2922C48.2293 17.4201 48.0766 17.5215 47.9087 17.5905C47.7408 17.6594 47.5609 17.6946 47.3793 17.6939H47.3818Z" fill="white"/>
<path d="M21.9022 14.9279H20.3687L21.9902 19.1634H22.6897V17.3583L21.9022 14.9279ZM23.4797 14.9352H25.0132L23.3892 19.1708H22.6897V17.3657L23.4797 14.9352ZM14.4572 14.3319C13.9422 13.9747 13.3446 13.7545 12.7207 13.6919C11.8941 13.6138 11.0087 13.7139 10.2432 13.7139V19.1585H10.2799C10.4266 19.1756 10.5733 19.1903 10.7225 19.2001C11.3104 19.2487 11.9014 19.2438 12.4884 19.1854C13.611 19.0608 14.3325 18.6969 14.7752 18.223C15.1674 17.782 15.3887 17.2153 15.3989 16.6255V16.4961V16.4277C15.3891 15.6534 15.1665 14.8742 14.4572 14.3319ZM13.2099 17.6588C12.7476 17.9177 12.1851 17.8542 11.6764 17.8542V15.0183C12.2169 15.0183 12.8259 14.9474 13.3004 15.2796C14.0879 15.8341 14.0586 17.18 13.2025 17.6588H13.2099ZM19.6961 18.0838C19.5713 17.9787 19.4124 17.8004 19.2436 17.7711C18.9746 17.7345 18.6395 18.096 18.3411 18.1253C17.8764 18.1717 17.5413 17.8517 17.3628 17.4658H20.1901C20.1901 16.6842 20.1241 15.861 19.4564 15.3236C18.2164 14.3124 16.1815 15.0598 15.954 16.6548C15.7095 18.3354 17.0326 19.4199 18.6444 19.2098C19.0441 19.1534 19.4192 18.9839 19.7254 18.7213C19.8355 18.6236 19.9969 18.4893 19.9162 18.3305C19.8585 18.2355 19.7839 18.1519 19.6961 18.0838ZM18.7936 16.6988H17.3506C17.3818 16.5304 17.471 16.3783 17.6028 16.2687C17.7346 16.1592 17.9006 16.0993 18.0721 16.0993C18.2435 16.0993 18.4096 16.1592 18.5414 16.2687C18.6732 16.3783 18.7624 16.5304 18.7936 16.6988Z" fill="white"/>
</svg>
