<svg width="80" height="37" viewBox="0 0 80 37" fill="none" xmlns="http://www.w3.org/2000/svg">
<path d="M25.5846 27.4162L31.3868 27.843V32.7925C31.3868 32.7925 20.5454 43.4565 4.74805 30.8304H10.1313L10.7279 25.9668C10.7279 25.9668 16.8715 32.1939 25.5846 27.4162Z" fill="#0D2C40"/>
<path d="M5.93563 4.54883C5.93563 4.54883 -5.8548 15.5121 3.79898 29.5487L9.18779 30.0614L9.70114 24.8569C9.70114 24.8569 4.74799 16.7509 11.1468 10.3519L5.40841 9.90852L5.93563 4.54883Z" fill="#0D2C40"/>
<path d="M7.21826 3.78206C7.21826 3.78206 21.9251 -5.68748 33.105 5.74414L28.1491 5.40327L27.6358 10.9459C27.6358 10.9459 21.9972 4.12293 12.6015 9.41334L6.87695 9.15838L7.21826 3.78206Z" fill="#0D2C40"/>
<path d="M28.916 12.3148L29.2573 6.59766L34.4685 7.11035L50.1882 24.6H44.8077L44.2944 29.4637L28.916 12.3148Z" fill="#0D2C40"/>
<path d="M27.0391 26.4781L46.9432 4.54883L52.2404 5.06152L51.8991 10.4378L32.3363 32.1926L32.4195 26.5613L27.0391 26.4781Z" fill="#02D35F"/>
<path d="M47.7109 3.76064L53.2218 4.20959L52.8389 9.45844C52.8389 9.45844 60.9748 4.27333 66.9353 9.77713L72.7625 10.0321L73.2869 4.92181C73.2869 4.92181 64.1798 -5.332 47.7109 3.76064Z" fill="#02D35F"/>
<path d="M67.7685 10.6085L73.5957 10.9494L74.0453 5.80859C74.0453 5.80859 86.7958 19.9949 73.0186 32.1942L67.3828 31.8034L67.8962 25.9837C67.8962 25.9837 75.5215 17.4564 67.7685 10.6085Z" fill="#02D35F"/>
<path d="M51.5575 25.9678L45.672 25.4551L45.3418 30.6402C45.3418 30.6402 55.7864 42.6704 71.5477 33.0706L66.1644 32.6355L66.6778 27.068C66.6778 27.068 59.8211 32.5579 51.5575 25.9678Z" fill="#02D35F"/>
<path d="M59.0048 17.0041V18.944C58.988 19.0195 58.9796 19.0967 58.9798 19.174C58.9796 19.2523 58.988 19.3304 59.0048 19.4068V22.5328H57.5508V16.9902L59.0048 17.0041Z" fill="#0D2C40"/>
<path d="M60.2839 17.006C59.8051 17.0679 59.3577 17.2782 59.0047 17.6074C58.7613 17.7959 58.5599 18.033 58.4133 18.3035C58.2666 18.5741 58.1779 18.8721 58.1528 19.1787C58.1743 19.4991 58.2609 19.8118 58.4074 20.0977C58.5538 20.3836 58.7571 20.6366 59.0047 20.8415C59.3139 21.1359 59.7141 21.3167 60.1396 21.3542C61.491 21.3874 62.157 20.2263 62.157 19.1815C62.157 18.1367 61.3301 16.945 60.2839 17.006ZM59.8427 20.1403C59.6417 20.1315 59.4497 20.0544 59.2983 19.9219C59.147 19.7894 59.0454 19.6094 59.0103 19.4115C58.9934 19.335 58.9851 19.257 58.9853 19.1787C58.9851 19.1013 58.9934 19.0242 59.0103 18.9487C59.0454 18.7508 59.147 18.5707 59.2983 18.4383C59.4497 18.3058 59.6417 18.2287 59.8427 18.2198C60.0823 18.2421 60.3049 18.3529 60.467 18.5305C60.629 18.7082 60.7188 18.9398 60.7188 19.1801C60.7188 19.4204 60.629 19.652 60.467 19.8296C60.3049 20.0073 60.0823 20.1181 59.8427 20.1403ZM65.0484 18.6605C64.8375 18.594 64.0578 18.472 64.0578 18.1783C64.0578 18.012 64.2964 17.9926 64.413 17.9981C64.7459 17.9981 65.2454 18.3944 65.5229 18.3196C65.7699 18.2559 65.9863 17.6185 66.0779 17.4023C65.377 17.0028 64.5606 16.8542 63.7636 16.9811C63.5667 17.0185 63.3803 17.0982 63.2172 17.2145C63.0541 17.3309 62.9181 17.4811 62.8187 17.6549C62.7193 17.8287 62.6587 18.022 62.6413 18.2214C62.6238 18.4209 62.6498 18.6217 62.7175 18.8101C63.0699 19.7219 64.1521 19.3644 64.6988 19.9186C64.9235 20.1514 64.4601 20.2567 64.3075 20.2512C63.8382 20.1816 63.3895 20.0115 62.9922 19.7524C62.8562 19.9464 62.4372 20.4092 62.4872 20.6503C62.5371 20.8914 63.0893 21.0715 63.3196 21.1436C64.0911 21.393 65.2815 21.4872 65.8614 20.7861C66.5857 19.9436 65.953 18.9542 65.0484 18.6605ZM53.7574 15.4707C53.1537 15.4707 52.5636 15.6495 52.0616 15.9845C51.5597 16.3194 51.1685 16.7955 50.9374 17.3526C50.7064 17.9096 50.646 18.5225 50.7637 19.1139C50.8815 19.7052 51.1722 20.2484 51.5991 20.6747C52.026 21.101 52.5699 21.3914 53.162 21.509C53.7541 21.6266 54.3678 21.5662 54.9255 21.3355C55.4833 21.1048 55.96 20.7141 56.2954 20.2128C56.6308 19.7114 56.8098 19.1221 56.8098 18.5191C56.8098 17.7106 56.4882 16.9353 55.9158 16.3636C55.3434 15.7919 54.567 15.4707 53.7574 15.4707ZM53.7574 20.0738C53.448 20.0733 53.1457 19.9812 52.8887 19.8091C52.6317 19.637 52.4316 19.3927 52.3135 19.107C52.1955 18.8214 52.1649 18.5072 52.2256 18.2042C52.2863 17.9012 52.4356 17.6229 52.6546 17.4046C52.8735 17.1863 53.1524 17.0377 53.4559 16.9776C53.7594 16.9176 54.074 16.9487 54.3598 17.0671C54.6456 17.1854 54.8898 17.3858 55.0617 17.6427C55.2335 17.8997 55.3252 18.2018 55.3252 18.5108C55.3252 18.7165 55.2846 18.9202 55.2056 19.1102C55.1266 19.3002 55.0108 19.4728 54.8649 19.618C54.719 19.7632 54.5458 19.8782 54.3553 19.9565C54.1648 20.0347 53.9607 20.0746 53.7547 20.0738H53.7574Z" fill="#0D2C40"/>
<path d="M24.8489 16.9361H23.1091L24.9488 21.7416H25.7424V19.6936L24.8489 16.9361ZM26.6387 16.9444H28.3785L26.536 21.7499H25.7424V19.7019L26.6387 16.9444ZM16.4022 16.2599C15.8179 15.8547 15.1399 15.6048 14.432 15.5338C13.4941 15.4452 12.4896 15.5588 11.6211 15.5588V21.736H11.6627C11.8292 21.7554 11.9957 21.772 12.165 21.7831C12.8319 21.8383 13.5025 21.8328 14.1684 21.7665C15.4421 21.6252 16.2607 21.2122 16.7629 20.6746C17.208 20.1743 17.459 19.5313 17.4705 18.8622V18.7153V18.6377C17.4594 17.7592 17.2069 16.8752 16.4022 16.2599ZM14.987 20.0344C14.4626 20.3282 13.8243 20.2561 13.2472 20.2561V17.0387C13.8604 17.0387 14.5514 16.9583 15.0897 17.3352C15.9832 17.9643 15.9499 19.4913 14.9787 20.0344H14.987ZM22.346 20.5166C22.2045 20.3975 22.0241 20.1952 21.8326 20.1619C21.5274 20.1204 21.1472 20.5305 20.8087 20.5638C20.2815 20.6164 19.9013 20.2534 19.6987 19.8155H22.9065C22.9065 18.9287 22.8316 17.9948 22.074 17.3851C20.6672 16.2378 18.3585 17.0858 18.1004 18.8954C17.8229 20.8021 19.3241 22.0325 21.1528 21.7942C21.6062 21.7302 22.0318 21.5379 22.3793 21.24C22.5041 21.1291 22.6873 20.9767 22.5957 20.7965C22.5303 20.6888 22.4457 20.5939 22.346 20.5166ZM21.322 18.9453H19.6849C19.7202 18.7543 19.8215 18.5816 19.971 18.4574C20.1205 18.3331 20.3089 18.2651 20.5035 18.2651C20.698 18.2651 20.8864 18.3331 21.0359 18.4574C21.1854 18.5816 21.2867 18.7543 21.322 18.9453Z" fill="#02D35F"/>
</svg>
