<svg width="60" height="60" viewBox="0 0 60 60" fill="none" xmlns="http://www.w3.org/2000/svg">
<g clip-path="url(#clip0_357_1764)">
<path fill-rule="evenodd" clip-rule="evenodd" d="M25.0173 31.6645C25.0173 31.6645 23.5842 32.4984 26.0383 32.7801C29.0122 33.1197 30.5312 33.0709 33.8074 32.4511C33.8074 32.4511 34.6699 32.9912 35.874 33.4584C28.5276 36.6063 19.2479 33.2763 25.0173 31.6645ZM24.1193 27.5566C24.1193 27.5566 22.5116 28.7466 24.9678 29.0006C28.1447 29.3287 30.6523 29.3555 34.9943 28.52C34.9943 28.52 35.5938 29.1286 36.5373 29.461C27.6563 32.0586 17.7653 29.6655 24.1193 27.5566Z" fill="white"/>
<path fill-rule="evenodd" clip-rule="evenodd" d="M31.6872 20.5889C33.4982 22.6735 31.2125 24.5483 31.2125 24.5483C31.2125 24.5483 35.8088 22.1761 33.6977 19.2044C31.7267 16.4343 30.2149 15.0582 38.3986 10.3125C38.3986 10.3125 25.5523 13.5196 31.6872 20.5889Z" fill="white"/>
<path fill-rule="evenodd" clip-rule="evenodd" d="M41.4025 34.7045C41.4025 34.7045 42.4633 35.5792 40.234 36.2556C35.9947 37.5396 22.5866 37.9268 18.8622 36.3066C17.5243 35.7239 20.0345 34.9162 20.8242 34.7456C21.6478 34.5675 22.1178 34.5999 22.1178 34.5999C20.629 33.5515 12.4945 36.659 17.9866 37.5505C32.9626 39.9787 45.2866 36.4573 41.4025 34.7045ZM25.7071 23.3013C25.7071 23.3013 18.8877 24.9215 23.2926 25.5104C25.153 25.7591 28.8591 25.7018 32.3139 25.412C35.1365 25.1751 37.9698 24.6684 37.9698 24.6684C37.9698 24.6684 36.9752 25.0951 36.2546 25.5863C29.3285 27.4082 15.9505 26.5597 19.8022 24.6973C23.0588 23.122 25.7071 23.3013 25.7071 23.3013ZM37.9414 30.139C44.9815 26.4816 41.7265 22.966 39.4539 23.4398C38.8983 23.5559 38.649 23.6561 38.649 23.6561C38.649 23.6561 38.8563 23.3318 39.2504 23.1923C43.7455 21.6126 47.2019 27.8527 37.8011 30.3239C37.8007 30.3239 37.9091 30.2262 37.9414 30.139Z" fill="white"/>
<path fill-rule="evenodd" clip-rule="evenodd" d="M33.6974 2.64648C33.6974 2.64648 37.5955 6.54706 29.9991 12.5431C23.9072 17.3548 28.6102 20.0975 29.9973 23.2323C26.4407 20.024 23.8319 17.1992 25.5819 14.5708C28.1511 10.7125 35.2703 8.84147 33.6974 2.64648Z" fill="white"/>
<path fill-rule="evenodd" clip-rule="evenodd" d="M26.3998 40.0529C33.1563 40.485 43.5339 39.813 43.7801 36.6152C43.7801 36.6152 43.3076 37.8273 38.1955 38.7889C32.4279 39.8746 25.3131 39.7482 21.0947 39.0519C21.0947 39.0519 21.9591 39.7672 26.3998 40.0529Z" fill="white"/>
<path fill-rule="evenodd" clip-rule="evenodd" d="M43.4683 45.7883H43.2629V45.6732H43.8173V45.7883H43.6118V46.3636H43.4683V45.7883ZM44.5746 45.817H44.5721L44.3679 46.3633H44.2742L44.0713 45.817H44.0688V46.3633H43.9324V45.6729H44.1326L44.3206 46.1612L44.5086 45.6729H44.7069V46.3633H44.5749L44.5746 45.817ZM25.293 52.2706C24.6558 52.8228 23.9822 53.1335 23.3774 53.1335C22.5158 53.1335 22.0483 52.6158 22.0483 51.7875C22.0483 50.8907 22.5488 50.2346 24.5522 50.2346H25.2927L25.293 52.2706ZM27.0517 54.2547V48.1126C27.0517 46.5429 26.1565 45.5069 23.9984 45.5069C22.7393 45.5069 21.6355 45.8179 20.7381 46.2142L20.9965 47.3021C21.7034 47.0425 22.6173 46.8018 23.5144 46.8018C24.7576 46.8018 25.2927 47.3021 25.2927 48.3377V49.1143H24.6714C21.6514 49.1143 20.2887 50.2859 20.2887 52.0474C20.2887 53.5652 21.1867 54.4281 22.8772 54.4281C23.9639 54.4281 24.7757 53.9795 25.5336 53.323L25.6715 54.2547H27.0517ZM32.9214 54.2547H30.7285L28.0879 45.6632H30.0035L31.6424 50.9427L32.0072 52.529C32.8339 50.2346 33.4207 47.9053 33.7142 45.6632H35.5769C35.0782 48.4921 34.1799 51.598 32.9214 54.2547ZM41.3373 52.2706C40.6983 52.8228 40.0247 53.1335 39.4211 53.1335C38.5595 53.1335 38.0926 52.6158 38.0926 51.7875C38.0926 50.8907 38.5935 50.2346 40.5956 50.2346H41.3373V52.2706ZM43.0967 54.2547V48.1126C43.0967 46.5429 42.1986 45.5069 40.0427 45.5069C38.7824 45.5069 37.6789 45.8179 36.7815 46.2142L37.0399 47.3021C37.7468 47.0425 38.6626 46.8018 39.56 46.8018C40.8013 46.8018 41.337 47.3021 41.337 48.3377V49.1143H40.7157C37.6954 49.1143 36.3336 50.2859 36.3336 52.0474C36.3336 53.5652 37.2298 54.4281 38.9206 54.4281C40.0082 54.4281 40.8188 53.9795 41.5786 53.323L41.7171 54.2547H43.0967ZM18.3603 55.7146C17.8592 56.447 17.0486 57.0269 16.1624 57.354L15.2939 56.3312C15.9691 55.9847 16.5474 55.4254 16.8167 54.9049C17.0486 54.4411 17.1454 53.8447 17.1454 52.4172V42.6074H19.0146V52.2818C19.0146 54.1912 18.8621 54.9628 18.3603 55.7146Z" fill="white"/>
</g>
<defs>
<clipPath id="clip0_357_1764">
<rect width="60" height="60" fill="white"/>
</clipPath>
</defs>
</svg>
