<svg width="75" height="75" viewBox="0 0 75 75" fill="none" xmlns="http://www.w3.org/2000/svg">
<path d="M73.823 16.9374C73.85 17.0372 73.864 17.1401 73.864 17.2435V33.314C73.864 33.7338 73.6394 34.1216 73.2752 34.3305L59.7869 42.0962V57.4886C59.7869 57.9075 59.5643 58.2941 59.2011 58.505L31.0455 74.7132C30.9811 74.7498 30.9108 74.7732 30.8405 74.7981C30.8141 74.8069 30.7892 74.8231 30.7614 74.8304C30.5645 74.8822 30.3577 74.8822 30.1608 74.8304C30.1286 74.8216 30.0993 74.804 30.0686 74.7923C30.0041 74.7689 29.9367 74.7484 29.8752 74.7132L1.72552 58.505C1.36154 58.2959 1.13672 57.9083 1.13672 57.4886V9.2771C1.13672 9.17165 1.15137 9.06912 1.17773 8.96952C1.18652 8.93583 1.20702 8.90507 1.21874 8.87138C1.24071 8.80987 1.26122 8.74689 1.29344 8.68976C1.31541 8.65168 1.34763 8.62092 1.374 8.58577C1.40768 8.5389 1.43844 8.49057 1.47799 8.44956C1.51168 8.41587 1.55562 8.39097 1.5937 8.36168C1.63618 8.32652 1.67426 8.28844 1.72259 8.26061H1.72406L15.7996 0.156532C16.1623 -0.0521774 16.6087 -0.0521774 16.9714 0.156532L31.047 8.26061H31.0499C31.0968 8.28991 31.1363 8.32652 31.1788 8.36021C31.2169 8.3895 31.2594 8.41587 31.293 8.44809C31.3341 8.49057 31.3633 8.5389 31.3985 8.58577C31.4234 8.62092 31.4571 8.65168 31.4776 8.68976C31.5113 8.74835 31.5303 8.80987 31.5538 8.87138C31.5655 8.90507 31.586 8.93583 31.5948 8.97098C31.6217 9.0708 31.6355 9.17371 31.6358 9.2771V39.3895L43.3649 32.6358V17.242C43.3649 17.1395 43.3796 17.0355 43.406 16.9374C43.4162 16.9022 43.4352 16.8715 43.447 16.8378C43.4704 16.7763 43.4909 16.7133 43.5231 16.6562C43.5451 16.6181 43.5773 16.5873 43.6022 16.5522C43.6374 16.5053 43.6667 16.457 43.7077 16.416C43.7414 16.3823 43.7838 16.3574 43.8219 16.3281C43.8659 16.2929 43.9039 16.2548 43.9508 16.227H43.9523L58.0293 8.12293C58.392 7.91392 58.8385 7.91392 59.2011 8.12293L73.2767 16.227C73.3265 16.2563 73.3645 16.2929 73.4085 16.3266C73.4451 16.3559 73.4876 16.3823 73.5213 16.4145C73.5623 16.457 73.5916 16.5053 73.6267 16.5522C73.6531 16.5873 73.6853 16.6181 73.7058 16.6562C73.7395 16.7133 73.7585 16.7763 73.782 16.8378C73.7952 16.8715 73.8142 16.9022 73.823 16.9374ZM71.5176 32.6358V19.2721L66.5919 22.1077L59.7869 26.0257V39.3895L71.519 32.6358H71.5176ZM57.442 56.8104V43.4379L50.7484 47.2607L31.6343 58.1696V71.6681L57.442 56.8104ZM3.48314 11.3057V56.8104L29.2879 71.6667V58.1711L15.807 50.5416L15.8026 50.5386L15.7967 50.5357C15.7513 50.5093 15.7132 50.4713 15.6708 50.439C15.6341 50.4097 15.5917 50.3863 15.5594 50.3541L15.5565 50.3497C15.5184 50.3131 15.4921 50.2677 15.4598 50.2267C15.4305 50.1871 15.3954 50.1534 15.372 50.1124L15.3705 50.108C15.3441 50.0641 15.328 50.0114 15.309 49.9616C15.2899 49.9176 15.265 49.8766 15.2533 49.8297V49.8283C15.2387 49.7726 15.2357 49.714 15.2299 49.6569C15.224 49.613 15.2123 49.569 15.2123 49.5251V49.5221V18.0593L8.40886 14.1398L3.48314 11.3071V11.3057ZM16.387 2.52639L4.65928 9.2771L16.3841 16.0278L28.1103 9.27564L16.3841 2.52639H16.387ZM22.4859 44.6565L29.2894 40.7399V11.3057L24.3636 14.1413L17.5587 18.0593V47.4936L22.4859 44.6565ZM58.6152 10.4928L46.889 17.2435L58.6152 23.9942L70.34 17.242L58.6152 10.4928ZM57.442 26.0257L50.6371 22.1077L45.7114 19.2721V32.6358L52.5148 36.5524L57.442 39.3895V26.0257ZM30.4596 56.141L47.6594 46.3218L56.2571 41.4151L44.5396 34.6688L31.0484 42.436L18.7524 49.5148L30.4596 56.141Z" fill="#FF2D20"/>
</svg>
