<svg width="80" height="49" viewBox="0 0 80 49" fill="none" xmlns="http://www.w3.org/2000/svg">
<g clip-path="url(#clip0_357_1492)">
<path d="M39.5411 48.7346C39.2771 48.7346 39.0148 48.6657 38.7834 48.5331L36.3715 47.1127C36.0112 46.9123 36.187 46.8415 36.3058 46.8006C36.7861 46.6333 36.8836 46.5956 37.3963 46.306C37.4502 46.2754 37.5207 46.2862 37.5759 46.3186L39.4288 47.4122C39.4957 47.4482 39.5907 47.4482 39.6527 47.4122L46.8774 43.2641C46.9443 43.2264 46.9877 43.149 46.9877 43.0699V34.7772C46.9877 34.6945 46.9443 34.6207 46.8759 34.5794L39.6541 30.4348C39.5872 30.3953 39.4986 30.3953 39.4317 30.4348L32.2113 34.5794C32.1413 34.6189 32.0969 34.6963 32.0969 34.7754V43.0681C32.0969 43.1472 32.1403 43.2228 32.209 43.2605L34.1874 44.3974C35.2616 44.9317 35.9181 44.3021 35.9181 43.6689V35.4842C35.9181 35.3672 36.0103 35.2773 36.1279 35.2773H37.0429C37.1569 35.2773 37.2509 35.3672 37.2509 35.4842V43.6725C37.2509 45.0971 36.4697 45.9156 35.1115 45.9156C34.6938 45.9156 34.3646 45.9156 33.4459 45.4659L31.5507 44.3794C31.0823 44.1096 30.793 43.6059 30.793 43.0681V34.7754C30.793 34.2358 31.0823 33.7321 31.5507 33.4659L38.7826 29.316C39.2402 29.0587 39.8478 29.0587 40.3017 29.316L47.5246 33.4677C47.9912 33.7357 48.2824 34.2376 48.2824 34.7772V43.0699C48.2824 43.6077 47.9912 44.1096 47.5246 44.3794L40.3017 48.5293C40.0702 48.6624 39.808 48.7308 39.5404 48.7308" fill="white"/>
<path d="M41.7732 43.0213C38.612 43.0213 37.9492 41.5779 37.9492 40.3673C37.9492 40.2522 38.0425 40.1604 38.1585 40.1604H39.0916C39.1947 40.1604 39.2815 40.2351 39.2978 40.3363C39.4388 41.2822 39.8584 41.7592 41.7699 41.7592C43.2926 41.7592 43.94 41.4171 43.94 40.6139C43.94 40.1516 43.7556 39.808 41.3901 39.5778C39.4117 39.3835 38.1892 38.95 38.1892 37.376C38.1892 35.9261 39.4189 35.0627 41.4787 35.0627C43.7917 35.0627 44.9383 35.8614 45.083 37.5775C45.0884 37.6368 45.0667 37.6944 45.0269 37.7376C44.9871 37.7789 44.931 37.8041 44.8732 37.8041H43.9346C43.8369 37.8041 43.7519 37.7358 43.7321 37.6422C43.506 36.6475 42.9599 36.3291 41.4751 36.3291C39.8132 36.3291 39.6197 36.9047 39.6197 37.3364C39.6197 37.8599 39.8475 38.0128 42.09 38.3078C44.3108 38.601 45.3651 39.0147 45.3651 40.5671C45.3651 42.1321 44.0522 43.0297 41.7627 43.0297M50.5625 34.2352H50.8048C51.0038 34.2352 51.0418 34.0967 51.0418 34.0158C51.0418 33.8035 50.8953 33.8035 50.8139 33.8035H50.5643L50.5625 34.2352ZM50.2677 33.5553H50.8048C50.9893 33.5553 51.351 33.5553 51.351 33.9654C51.351 34.2514 51.1665 34.3108 51.0562 34.3468C51.2714 34.3611 51.2859 34.5015 51.3148 34.6993C51.3293 34.8235 51.3528 35.0375 51.3962 35.1095H51.0653C51.0562 35.0375 51.0056 34.6418 51.0056 34.6202C50.9839 34.532 50.9531 34.4889 50.8428 34.4889H50.5698V35.1113H50.2677V33.5553ZM49.6221 34.3288C49.6221 34.9728 50.1448 35.4944 50.7868 35.4944C51.4342 35.4944 51.9568 34.962 51.9568 34.3288C51.9568 33.683 51.427 33.1703 50.785 33.1703C50.152 33.1703 49.6203 33.6758 49.6203 34.327M52.1811 34.3324C52.1811 35.0951 51.5535 35.7175 50.7886 35.7175C50.029 35.7175 49.3961 35.1023 49.3961 34.3324C49.3961 33.5481 50.0435 32.9473 50.7886 32.9473C51.5391 32.9473 52.1793 33.5499 52.1793 34.3324" fill="white"/>
<path fill-rule="evenodd" clip-rule="evenodd" d="M17.1686 16.2884C17.1686 15.9574 16.9932 15.6534 16.706 15.4888L9.04616 11.1051C8.91686 11.0295 8.772 10.9899 8.62516 10.9845H8.54595C8.3991 10.9899 8.25425 11.0295 8.12277 11.1051L0.463321 15.4888C0.17795 15.6543 0 15.9583 0 16.2893L0.0168185 28.0969C0.0168185 28.2605 0.101815 28.4134 0.24649 28.4944C0.387548 28.5807 0.564775 28.5807 0.705833 28.4944L5.25948 25.9005C5.54702 25.7303 5.72243 25.4295 5.72243 25.1018V19.5857C5.72243 19.2565 5.89785 18.9525 6.18449 18.7888L8.12313 17.6782C8.26709 17.5954 8.42514 17.5544 8.58609 17.5544C8.74451 17.5544 8.90619 17.5951 9.04616 17.678L10.9839 18.7882C11.2707 18.9519 11.4469 19.2559 11.4469 19.5851V25.1009C11.4469 25.4283 11.6246 25.7305 11.9107 25.8996L16.4615 28.4917C16.6043 28.5762 16.7821 28.5762 16.9244 28.4917C17.0648 28.4107 17.1537 28.2578 17.1537 28.0942L17.1686 16.2884ZM53.3134 22.4361C53.3134 22.5183 53.2695 22.5944 53.1977 22.635L50.5668 24.1436C50.4953 24.1844 50.4071 24.1844 50.3358 24.1436L47.7046 22.635C47.6322 22.5942 47.5888 22.5181 47.5888 22.4361V19.4148C47.5888 19.3324 47.6322 19.2565 47.7028 19.2151L50.3322 17.7041C50.4046 17.6627 50.4932 17.6627 50.5655 17.7041L53.1968 19.2151C53.2691 19.2565 53.3125 19.3324 53.3125 19.4148L53.3134 22.4361ZM54.0241 0.0582433C53.8806 -0.0212652 53.7059 -0.0191066 53.5641 0.0631002C53.423 0.145847 53.3359 0.296949 53.3359 0.460642V12.1531C53.3359 12.2682 53.2744 12.3743 53.1742 12.4319C53.0747 12.4894 52.9508 12.4894 52.8505 12.4319L50.9317 11.3326C50.646 11.1682 50.2941 11.1682 50.0072 11.3326L42.3449 15.7313C42.0586 15.895 41.8819 16.199 41.8819 16.5264V25.3263C41.8819 25.6555 42.0586 25.9577 42.3449 26.1232L50.0072 30.5249C50.2933 30.6886 50.6456 30.6886 50.9326 30.5249L58.595 26.1214C58.8807 25.9559 59.0579 25.6537 59.0579 25.3245V3.3931C59.0579 3.05924 58.8753 2.75218 58.5823 2.58902L54.0241 0.0582433ZM79.5399 19.3353C79.8246 19.1709 79.9998 18.8672 79.9998 18.5398V16.4071C79.9998 16.079 79.8244 15.7763 79.5392 15.6111L71.9257 11.2148C71.6381 11.0493 71.2855 11.0493 70.9979 11.2148L63.3374 15.6129C63.0499 15.7784 62.8745 16.0806 62.8745 16.4098V25.2061C62.8745 25.5371 63.0535 25.8429 63.341 26.0066L70.9527 30.322C71.233 30.4821 71.5766 30.4839 71.8606 30.3274L76.4649 27.7821C76.6095 27.7011 76.7018 27.5482 76.7018 27.3827C76.7018 27.2172 76.6131 27.0625 76.4685 26.9816L68.7609 22.5816C68.6162 22.5007 68.5276 22.3478 68.5276 22.1841V19.4247C68.5276 19.2599 68.6144 19.1081 68.7591 19.026L71.1571 17.6499C71.2999 17.5672 71.4754 17.5672 71.6182 17.6499L74.018 19.026C74.1609 19.107 74.2495 19.2599 74.2495 19.4236V21.593C74.2495 21.7567 74.3381 21.9096 74.481 21.9923C74.6239 22.0733 74.8011 22.0733 74.944 21.9905L79.5399 19.3353Z" fill="white"/>
<path fill-rule="evenodd" clip-rule="evenodd" d="M71.3498 18.9223C71.4041 18.8905 71.4721 18.8905 71.527 18.9223L72.9973 19.766C73.0523 19.7976 73.0859 19.8559 73.0859 19.9189V21.608C73.0859 21.6709 73.0523 21.7292 72.9973 21.7609L71.527 22.6045C71.4721 22.6364 71.4041 22.6364 71.3498 22.6045L69.8805 21.7609C69.8244 21.7292 69.79 21.6709 69.79 21.608V19.9189C69.79 19.8559 69.8226 19.7976 69.8787 19.766L71.3498 18.9223Z" fill="white"/>
<mask id="mask0_357_1492" style="mask-type:luminance" maskUnits="userSpaceOnUse" x="20" y="11" width="19" height="20">
<path d="M29.0657 11.2571L21.4468 15.6313C21.1614 15.795 20.9863 16.0972 20.9863 16.4239V25.1784C20.9863 25.5053 21.1614 25.8073 21.4468 25.971L29.0662 30.3487C29.3511 30.5118 29.7023 30.5118 29.9867 30.3487L37.605 25.971C37.8889 25.8073 38.0643 25.5051 38.0643 25.1784V16.4239C38.0643 16.0972 37.8889 15.795 37.6031 15.6313L29.986 11.2571C29.8431 11.1756 29.684 11.1348 29.5249 11.1348C29.3657 11.1348 29.2066 11.1756 29.0637 11.2571" fill="white"/>
</mask>
<g mask="url(#mask0_357_1492)">
<path d="M45.7649 14.8893L24.296 4.42188L13.2881 26.7587L34.7564 37.2267L45.7649 14.8893Z" fill="white"/>
</g>
<mask id="mask1_357_1492" style="mask-type:luminance" maskUnits="userSpaceOnUse" x="21" y="11" width="17" height="20">
<path d="M21.1748 25.7338C21.2477 25.8278 21.3388 25.9093 21.4461 25.9705L27.9818 29.7256L29.0704 30.348C29.2332 30.4415 29.4187 30.4811 29.601 30.4676C29.6618 30.4627 29.7226 30.4514 29.7819 30.4347L37.8175 15.7993C37.756 15.7328 37.684 15.677 37.6034 15.6303L32.6146 12.7647L29.9776 11.2555C29.9027 11.2123 29.8215 11.1817 29.7388 11.1602L21.1748 25.7338Z" fill="white"/>
</mask>
<g mask="url(#mask1_357_1492)">
<path d="M11.8926 17.9849L27.0518 38.3933L47.1001 23.6597L31.94 3.25195L11.8926 17.9849Z" fill="white"/>
</g>
<mask id="mask2_357_1492" style="mask-type:luminance" maskUnits="userSpaceOnUse" x="21" y="11" width="18" height="20">
<path d="M29.435 11.1401C29.3071 11.1527 29.1822 11.1923 29.067 11.2574L21.4697 15.6191L29.6619 30.4612C29.7759 30.445 29.888 30.4073 29.9893 30.349L37.6082 25.9713C37.8433 25.8357 38.0043 25.6062 38.0531 25.3461L29.7017 11.1551C29.6402 11.143 29.5788 11.1367 29.5155 11.1367C29.4901 11.1367 29.4648 11.138 29.4395 11.1403" fill="white"/>
</mask>
<g mask="url(#mask2_357_1492)">
<path d="M21.4697 11.1367V30.4616H38.05V11.1367H21.4697Z" fill="white"/>
</g>
</g>
<defs>
<clipPath id="clip0_357_1492">
<rect width="80" height="48.7356" fill="white"/>
</clipPath>
</defs>
</svg>
