<svg width="61" height="74" viewBox="0 0 61 74" fill="none" xmlns="http://www.w3.org/2000/svg">
<g clip-path="url(#clip0_357_1666)">
<path d="M51.5923 21.2391L46.1651 26.6663C55.0765 35.5777 55.0765 49.9163 46.1651 58.6937C37.2538 67.605 22.9152 67.605 14.1378 58.6937C5.22645 49.7823 5.22645 35.4437 14.1378 26.6663L28.2754 12.5288L30.2855 10.5187V-0.134766L8.9786 21.1721C-2.88089 33.0316 -2.88089 52.1944 8.9786 64.0539C20.8381 75.9134 40.0009 75.9134 51.6594 64.0539C63.4518 52.1944 63.4518 33.1656 51.5923 21.2391Z" fill="white"/>
<path d="M40.9395 19.9668C43.1228 19.9668 44.8927 18.197 44.8927 16.0137C44.8927 13.8305 43.1228 12.0605 40.9395 12.0605C38.7562 12.0605 36.9863 13.8305 36.9863 16.0137C36.9863 18.197 38.7562 19.9668 40.9395 19.9668Z" fill="white"/>
</g>
<defs>
<clipPath id="clip0_357_1666">
<rect width="60.5035" height="73.1" fill="white"/>
</clipPath>
</defs>
</svg>
