<svg width="70" height="85" viewBox="0 0 70 85" fill="none" xmlns="http://www.w3.org/2000/svg">
<g clip-path="url(#clip0_239_2256)">
<path d="M59.6907 24.5724L53.4116 30.8515C63.7217 41.1616 63.7217 57.7508 53.4116 67.9058C43.1015 78.2159 26.5124 78.2159 16.3573 67.9058C6.04727 57.5957 6.04727 41.0065 16.3573 30.8515L32.7139 14.4949L35.0395 12.1693V-0.15625L10.3884 24.4949C-3.33258 38.2159 -3.33258 60.3864 10.3884 74.1073C24.1093 87.8283 46.2798 87.8283 59.7682 74.1073C73.4116 60.3864 73.4116 38.3709 59.6907 24.5724Z" fill="#EE4C2C"/>
<path d="M47.3647 23.1004C49.8906 23.1004 51.9383 21.0527 51.9383 18.5268C51.9383 16.0008 49.8906 13.9531 47.3647 13.9531C44.8387 13.9531 42.791 16.0008 42.791 18.5268C42.791 21.0527 44.8387 23.1004 47.3647 23.1004Z" fill="#EE4C2C"/>
</g>
<defs>
<clipPath id="clip0_239_2256">
<rect width="70" height="84.5736" fill="white"/>
</clipPath>
</defs>
</svg>
