<svg width="75" height="75" viewBox="0 0 75 75" fill="none" xmlns="http://www.w3.org/2000/svg">
<path d="M61.6651 25.7296C60.887 25.4618 60.0808 25.2084 59.2507 24.9688C59.3872 24.4119 59.5124 23.8623 59.6237 23.3221C61.4513 14.4507 60.2564 7.30378 56.176 4.95073C52.2634 2.69446 45.8646 5.04698 39.4022 10.671C38.7808 11.2118 38.1576 11.7844 37.5347 12.3845C37.1197 11.9875 36.7053 11.6038 36.292 11.2368C29.5192 5.2232 22.7305 2.68899 18.6541 5.04885C14.7452 7.31166 13.5877 14.0304 15.2328 22.4379C15.3916 23.25 15.5773 24.0793 15.7873 24.9224C14.8265 25.1952 13.899 25.4859 13.0115 25.7953C5.07109 28.5636 0 32.9023 0 37.4027C0 42.0508 5.44382 46.7128 13.7144 49.5397C14.367 49.7627 15.0443 49.9737 15.7422 50.1739C15.5157 51.0858 15.3186 51.9795 15.1532 52.8511C13.5846 61.1127 14.8096 67.6727 18.708 69.9212C22.7347 72.2433 29.4927 69.8565 36.0733 64.1043C36.5934 63.6496 37.1154 63.1674 37.6383 62.6619C38.3161 63.3146 38.9928 63.9323 39.6659 64.5117C46.0399 69.9968 52.3353 72.2117 56.2302 69.9569C60.2529 67.6281 61.5603 60.5811 59.8629 52.0073C59.7333 51.3524 59.5825 50.6835 59.4131 50.0026C59.8876 49.8623 60.3536 49.7175 60.8079 49.5669C69.4059 46.7182 75 42.1128 75 37.4027C75 32.8861 69.7654 28.5181 61.6651 25.7296ZM59.8002 46.5257C59.3901 46.6614 58.9693 46.7927 58.5405 46.9199C57.5913 43.9149 56.3103 40.7197 54.7426 37.4184C56.2386 34.1957 57.4701 31.0412 58.3927 28.0558C59.1599 28.2778 59.9046 28.512 60.6222 28.7591C67.5625 31.1483 71.796 34.6808 71.796 37.4027C71.796 40.3021 67.224 44.0658 59.8002 46.5257ZM56.7199 52.6295C57.4704 56.4207 57.5776 59.8485 57.0804 62.528C56.6337 64.9358 55.7354 66.5412 54.6247 67.1841C52.2611 68.5522 47.2066 66.7738 41.7554 62.083C41.1305 61.5452 40.5011 60.971 39.8696 60.3634C41.9829 58.0521 44.095 55.3652 46.1563 52.3811C49.782 52.0593 53.2075 51.5333 56.3139 50.8152C56.4669 51.4324 56.6028 52.0377 56.7199 52.6295ZM25.5692 66.9477C23.2599 67.7632 21.4207 67.7866 20.3089 67.1455C17.9432 65.781 16.9597 60.5139 18.3012 53.4486C18.4549 52.6395 18.6378 51.8083 18.8486 50.9588C21.9209 51.6381 25.3213 52.127 28.9557 52.4216C31.0309 55.3417 33.204 58.0257 35.3939 60.3758C34.9155 60.8377 34.4389 61.2774 33.9649 61.6918C31.0551 64.2354 28.139 66.04 25.5692 66.9477ZM14.7506 46.5079C11.0935 45.2579 8.07335 43.6334 6.00318 41.8607C4.14301 40.2676 3.20384 38.6861 3.20384 37.4027C3.20384 34.6717 7.27543 31.1884 14.0661 28.8207C14.8901 28.5335 15.7526 28.2627 16.6477 28.0084C17.5862 31.0613 18.8174 34.2531 20.3031 37.4807C18.7981 40.7562 17.5495 43.9989 16.6018 47.0876C15.9637 46.9041 15.3454 46.7111 14.7506 46.5079ZM18.3771 21.8226C16.9676 14.6193 17.9037 9.18532 20.2593 7.82176C22.7684 6.36916 28.3167 8.44026 34.1645 13.6327C34.5383 13.9646 34.9136 14.3119 35.2899 14.6713C33.1108 17.0112 30.9576 19.675 28.9008 22.5778C25.3735 22.9047 21.997 23.4299 18.8926 24.1332C18.6975 23.3481 18.5246 22.5767 18.3771 21.8226ZM50.7287 29.811C49.9866 28.5292 49.2247 27.2776 48.448 26.0603C50.841 26.3628 53.1337 26.7643 55.2867 27.2557C54.6403 29.3274 53.8347 31.4934 52.8863 33.7139C52.206 32.4223 51.4864 31.12 50.7287 29.811ZM37.5358 16.9611C39.0136 18.5622 40.4936 20.3497 41.9493 22.2892C40.4824 22.2199 38.9973 22.1838 37.5 22.1838C36.0168 22.1838 34.5427 22.2191 33.0849 22.2872C34.5421 20.3657 36.0348 18.5806 37.5358 16.9611ZM24.2584 29.8332C23.517 31.1187 22.8108 32.4139 22.1412 33.7115C21.2082 31.4987 20.41 29.3228 19.758 27.2218C21.8978 26.743 24.1797 26.3514 26.5575 26.0547C25.7698 27.2832 25.0017 28.5443 24.2584 29.8332ZM26.626 48.9794C24.1693 48.7053 21.8531 48.3339 19.7138 47.8683C20.3762 45.7297 21.192 43.5074 22.1448 41.247C22.8162 42.5436 23.5252 43.8394 24.271 45.1277C25.0308 46.4401 25.818 47.7257 26.626 48.9794ZM37.6244 58.0702C36.1059 56.4318 34.5912 54.6194 33.1119 52.6699C34.5479 52.7263 36.012 52.7551 37.5 52.7551C39.0287 52.7551 40.5399 52.7207 42.0274 52.6545C40.5669 54.6391 39.0922 56.4542 37.6244 58.0702ZM52.9169 41.1318C53.9193 43.4166 54.7644 45.6273 55.4353 47.7294C53.2608 48.2255 50.9129 48.6251 48.4392 48.922C49.2177 47.6882 49.9863 46.4151 50.7415 45.1056C51.5055 43.7808 52.2309 42.4539 52.9169 41.1318ZM47.9662 43.505C46.7938 45.5378 45.5902 47.4783 44.3683 49.31C42.1427 49.4692 39.8434 49.5511 37.5 49.5511C35.166 49.5511 32.8958 49.4786 30.7096 49.3367C29.4384 47.481 28.2086 45.5347 27.0437 43.5225C25.8818 41.5157 24.8128 39.492 23.8439 37.4796C24.8125 35.4626 25.879 33.4366 27.0342 31.4335L27.0339 31.4339C28.1922 29.4254 29.4112 27.4886 30.6706 25.6444C32.9011 25.4758 35.1883 25.3878 37.4999 25.3878C39.8218 25.3878 42.1121 25.4765 44.342 25.6465C45.5822 27.4772 46.7929 29.4077 47.9556 31.4165C49.1316 33.4478 50.2119 35.4603 51.1889 37.4341C50.2148 39.4418 49.137 41.4746 47.9662 43.505ZM54.5756 7.72644C57.0871 9.17477 58.0638 15.0159 56.4858 22.6754C56.3852 23.1641 56.2718 23.6619 56.1487 24.1664C53.0371 23.4485 49.6583 22.9142 46.1207 22.5823C44.0599 19.6476 41.9243 16.9797 39.7807 14.6699C40.357 14.1154 40.9325 13.5868 41.5056 13.0879C47.0426 8.26925 52.2177 6.36675 54.5756 7.72644ZM37.5 30.7055C41.1987 30.7055 44.1972 33.7039 44.1972 37.4027C44.1972 41.1015 41.1987 44.1 37.5 44.1C33.8013 44.1 30.8028 41.1015 30.8028 37.4027C30.8028 33.7039 33.8013 30.7055 37.5 30.7055Z" fill="#00D8FF"/>
</svg>
