<svg width="24" height="24" viewBox="0 0 24 24" fill="none" xmlns="http://www.w3.org/2000/svg">
<path d="M19.7328 8.23151C19.4838 8.14582 19.2259 8.06474 18.9602 7.98805C19.0039 7.80987 19.044 7.63399 19.0796 7.46111C19.6644 4.62226 19.282 2.33526 17.9763 1.58228C16.7243 0.860275 14.6767 1.61308 12.6087 3.41278C12.4099 3.58583 12.2104 3.76906 12.0111 3.96108C11.8783 3.83403 11.7457 3.71126 11.6134 3.59382C9.44613 1.66947 7.27375 0.858524 5.96931 1.61368C4.71847 2.33778 4.34805 4.48777 4.87449 7.17817C4.92532 7.43804 4.98475 7.70341 5.05194 7.97323C4.74449 8.06051 4.44767 8.15355 4.16367 8.25253C1.62275 9.13841 0 10.5268 0 11.9669C0 13.4543 1.74202 14.9461 4.38859 15.8507C4.59745 15.9221 4.81417 15.9896 5.0375 16.0537C4.96501 16.3455 4.90195 16.6315 4.84903 16.9104C4.34707 19.5541 4.73906 21.6533 5.98656 22.3728C7.27512 23.1159 9.43767 22.3521 11.5435 20.5114C11.7099 20.3659 11.8769 20.2116 12.0443 20.0499C12.2611 20.2587 12.4777 20.4564 12.6931 20.6418C14.7328 22.397 16.7473 23.1058 17.9937 22.3842C19.2809 21.639 19.6993 19.384 19.1561 16.6404C19.1147 16.4308 19.0664 16.2168 19.0122 15.9989C19.164 15.954 19.3131 15.9076 19.4585 15.8595C22.2099 14.9479 24 13.4742 24 11.9669C24 10.5216 22.3249 9.12384 19.7328 8.23151ZM19.1361 14.8863C19.0048 14.9297 18.8702 14.9717 18.733 15.0124C18.4292 14.0508 18.0193 13.0283 17.5176 11.9719C17.9963 10.9407 18.3904 9.93124 18.6857 8.9759C18.9312 9.04695 19.1695 9.12188 19.3991 9.20095C21.62 9.9655 22.9747 11.0959 22.9747 11.9669C22.9747 12.8947 21.5117 14.0991 19.1361 14.8863ZM18.1504 16.8395C18.3905 18.0527 18.4248 19.1496 18.2657 20.007C18.1228 20.7775 17.8353 21.2912 17.4799 21.497C16.7236 21.9347 15.1061 21.3657 13.3617 19.8646C13.1618 19.6925 12.9603 19.5088 12.7583 19.3143C13.4345 18.5747 14.1104 17.7149 14.77 16.76C15.9303 16.657 17.0264 16.4887 18.0204 16.2589C18.0694 16.4564 18.1129 16.6501 18.1504 16.8395ZM8.18214 21.4213C7.44318 21.6823 6.85463 21.6897 6.49886 21.4846C5.74182 21.048 5.42711 19.3625 5.8564 17.1016C5.90557 16.8427 5.96409 16.5767 6.03155 16.3048C7.0147 16.5222 8.10281 16.6787 9.26581 16.773C9.92989 17.7074 10.6253 18.5663 11.3261 19.3183C11.1729 19.4661 11.0204 19.6068 10.8688 19.7394C9.93762 20.5534 9.0045 21.1308 8.18214 21.4213ZM4.72018 14.8806C3.54992 14.4806 2.58347 13.9607 1.92102 13.3935C1.32576 12.8837 1.02523 12.3776 1.02523 11.9669C1.02523 11.093 2.32814 9.97832 4.50116 9.22069C4.76482 9.12875 5.04084 9.04212 5.32727 8.96074C5.62759 9.93765 6.02155 10.959 6.49698 11.9919C6.0154 13.04 5.61584 14.0777 5.31258 15.0661C5.10838 15.0074 4.91054 14.9456 4.72018 14.8806ZM5.88066 6.98128C5.42963 4.67621 5.72918 2.93735 6.48297 2.50101C7.28588 2.03618 9.06136 2.69893 10.9326 4.36051C11.0523 4.46671 11.1723 4.57787 11.2928 4.69287C10.5955 5.44162 9.90644 6.29405 9.24825 7.22294C8.11952 7.32756 7.03905 7.49562 6.04565 7.72067C5.98319 7.46944 5.92787 7.2226 5.88066 6.98128ZM16.2332 9.53758C15.9957 9.12739 15.7519 8.72689 15.5034 8.33733C16.2691 8.43413 17.0028 8.56263 17.6918 8.71988C17.4849 9.38281 17.2271 10.0759 16.9236 10.7865C16.7059 10.3732 16.4757 9.95645 16.2332 9.53758ZM12.0114 5.4256C12.4844 5.93794 12.9579 6.50995 13.4238 7.13058C12.9544 7.10841 12.4791 7.09688 12 7.09688C11.5254 7.09688 11.0537 7.10816 10.5872 7.12994C11.0535 6.51508 11.5312 5.94383 12.0114 5.4256ZM7.76268 9.54467C7.52546 9.95602 7.29947 10.3705 7.08519 10.7857C6.78662 10.0776 6.5312 9.38136 6.32255 8.70903C7.00731 8.5558 7.73752 8.4305 8.4984 8.33554C8.24635 8.72868 8.00054 9.13221 7.76268 9.54467ZM8.52031 15.6714C7.73418 15.5837 6.993 15.4649 6.30841 15.3159C6.52039 14.6316 6.78145 13.9204 7.08634 13.1971C7.30118 13.612 7.52806 14.0267 7.76674 14.4389C8.00985 14.8589 8.26177 15.2703 8.52031 15.6714ZM12.0398 18.5805C11.5539 18.0562 11.0692 17.4763 10.5958 16.8524C11.0553 16.8705 11.5238 16.8797 12 16.8797C12.4892 16.8797 12.9728 16.8687 13.4488 16.8475C12.9814 17.4825 12.5095 18.0634 12.0398 18.5805ZM16.9334 13.1602C17.2542 13.8914 17.5246 14.5988 17.7393 15.2715C17.0434 15.4302 16.2921 15.5581 15.5005 15.6531C15.7497 15.2583 15.9956 14.8509 16.2373 14.4318C16.4818 14.0079 16.7139 13.5833 16.9334 13.1602ZM15.3492 13.9196C14.974 14.5701 14.5889 15.1911 14.1978 15.7773C13.4857 15.8282 12.7499 15.8544 12 15.8544C11.2531 15.8544 10.5266 15.8312 9.82706 15.7858C9.42029 15.192 9.02675 14.5691 8.65398 13.9252C8.28219 13.2831 7.94009 12.6355 7.63003 11.9915C7.94001 11.3461 8.28129 10.6978 8.65095 10.0568L8.65086 10.0569C9.0215 9.41416 9.41157 8.79439 9.81459 8.20426C10.5283 8.1503 11.2603 8.12215 12 8.12215C12.743 8.12215 13.4759 8.15052 14.1894 8.20494C14.5863 8.79076 14.9737 9.40853 15.3458 10.0513C15.7221 10.7014 16.0678 11.3454 16.3804 11.977C16.0688 12.6194 15.7238 13.2699 15.3492 13.9196ZM17.4642 2.47051C18.2679 2.93397 18.5804 4.80313 18.0755 7.25417C18.0433 7.41057 18.007 7.56987 17.9676 7.73131C16.9719 7.50156 15.8907 7.3306 14.7586 7.2244C14.0992 6.28529 13.4158 5.43154 12.7298 4.6924C12.9142 4.51499 13.0984 4.34582 13.2818 4.18617C15.0536 2.64421 16.7097 2.03541 17.4642 2.47051ZM12 9.8238C13.1836 9.8238 14.1431 10.7833 14.1431 11.9669C14.1431 13.1505 13.1836 14.11 12 14.11C10.8164 14.11 9.85688 13.1505 9.85688 11.9669C9.85688 10.7833 10.8164 9.8238 12 9.8238Z" fill="#66C0FF"/>
</svg>
