<svg width="75" height="75" viewBox="0 0 75 75" fill="none" xmlns="http://www.w3.org/2000/svg">
<mask id="mask0_239_1729" style="mask-type:luminance" maskUnits="userSpaceOnUse" x="38" y="3" width="30" height="69">
<path d="M67.2668 20.1986L38.0547 3.5293V71.8522L49.7251 65.0886V45.8649L58.539 50.9602L58.4892 37.8083L49.7251 32.808V25.1718L67.3076 35.3172L67.2668 20.1986Z" fill="white"/>
</mask>
<g mask="url(#mask0_239_1729)">
<path d="M75.2575 3.28125H3.51953V71.9387H75.2575V3.28125Z" fill="url(#paint0_linear_239_1729)"/>
</g>
<mask id="mask1_239_1729" style="mask-type:luminance" maskUnits="userSpaceOnUse" x="6" y="3" width="30" height="69">
<path d="M6.21654 20.1986L35.4287 3.5293V71.8522L23.7583 65.0886V25.1718L6.17578 35.3172L6.21654 20.1986Z" fill="white"/>
</mask>
<g mask="url(#mask1_239_1729)">
<path d="M74.7712 3.28125H3.0332V71.9387H74.7712V3.28125Z" fill="url(#paint1_linear_239_1729)"/>
</g>
<defs>
<linearGradient id="paint0_linear_239_1729" x1="3.51953" y1="37.61" x2="75.2575" y2="37.61" gradientUnits="userSpaceOnUse">
<stop stop-color="#FF6F00"/>
<stop offset="1" stop-color="#FFA800"/>
</linearGradient>
<linearGradient id="paint1_linear_239_1729" x1="3.0332" y1="37.61" x2="74.7712" y2="37.61" gradientUnits="userSpaceOnUse">
<stop stop-color="#FF6F00"/>
<stop offset="1" stop-color="#FFA800"/>
</linearGradient>
</defs>
</svg>
